<?xml version="1.0" standalone="no"?><!-- Generator: Gravit.io --><svg xmlns="http://www.w3.org/2000/svg" xmlns:xlink="http://www.w3.org/1999/xlink" style="isolation:isolate" viewBox="0 0 80 80" width="80" height="80"><defs><clipPath id="_clipPath_GkhQ7vuPpJsavz9C9nIRUOUzVo2IbiFa"><rect width="80" height="80"/></clipPath></defs><g clip-path="url(#_clipPath_GkhQ7vuPpJsavz9C9nIRUOUzVo2IbiFa)"><rect width="80" height="80" style="fill:none"/><path d=" M 1 40 C 1 18.475 18.475 1 40 1 C 61.525 1 79 18.475 79 40 C 79 61.525 61.525 79 40 79 C 18.475 79 1 61.525 1 40 Z " fill="rgb(235,235,235)"/><rect x="16.5" y="21" width="47" height="29" transform="matrix(1,0,0,1,0,0)" fill="rgb(235,235,235)" vector-effect="non-scaling-stroke" stroke-width="1" stroke="rgb(0,0,0)" stroke-linejoin="miter" stroke-linecap="square" stroke-miterlimit="3"/><rect x="38" y="50" width="4" height="9" transform="matrix(1,0,0,1,0,0)" fill="rgb(0,0,0)" vector-effect="non-scaling-stroke" stroke-width="1" stroke="rgb(0,0,0)" stroke-linejoin="miter" stroke-linecap="square" stroke-miterlimit="3"/><rect x="21" y="59" width="38" height="2" transform="matrix(1,0,0,1,0,0)" fill="rgb(242,242,242)" vector-effect="non-scaling-stroke" stroke-width="1" stroke="rgb(0,0,0)" stroke-linejoin="miter" stroke-linecap="square" stroke-miterlimit="3"/><g transform="matrix(1,0,0,1,19,24)"><text transform="matrix(1,0,0,1,0,5.154)" style="font-family:&quot;Inconsolata&quot;;font-weight:400;font-size:6px;font-style:normal;fill:#000000;stroke:none;">&lt;/&gt;</text></g></g></svg>