<?xml version="1.0" standalone="no"?><!-- Generator: Gravit.io --><svg xmlns="http://www.w3.org/2000/svg" xmlns:xlink="http://www.w3.org/1999/xlink" style="isolation:isolate" viewBox="0 0 80 80" width="80" height="80"><defs><clipPath id="_clipPath_eFyxvhzGNJYfYwZoQnm8rcP8MJ0mXFn3"><rect width="80" height="80"/></clipPath></defs><g clip-path="url(#_clipPath_eFyxvhzGNJYfYwZoQnm8rcP8MJ0mXFn3)"><rect width="80" height="80" style="fill:none"/><path d=" M 0 40 C 0 17.923 17.923 0 40 0 C 62.077 0 80 17.923 80 40 C 80 62.077 62.077 80 40 80 C 17.923 80 0 62.077 0 40 Z " fill="rgb(235,235,235)"/><rect x="28" y="14" width="24" height="48" transform="matrix(1,0,0,1,0,0)" fill="rgb(235,235,235)" vector-effect="non-scaling-stroke" stroke-width="1" stroke="rgb(0,0,0)" stroke-linejoin="miter" stroke-linecap="square" stroke-miterlimit="3"/><rect x="30" y="17" width="20" height="39" transform="matrix(1,0,0,1,0,0)" fill="rgb(215,247,255)" vector-effect="non-scaling-stroke" stroke-width="1" stroke="rgb(0,0,0)" stroke-linejoin="miter" stroke-linecap="square" stroke-miterlimit="3"/><path d=" M 38.5 59.5 C 38.5 58.672 39.172 58 40 58 C 40.828 58 41.5 58.672 41.5 59.5 C 41.5 60.328 40.828 61 40 61 C 39.172 61 38.5 60.328 38.5 59.5 Z " fill="rgb(0,0,0)"/></g></svg>