<?xml version="1.0" standalone="no"?><!-- Generator: Gravit.io --><svg xmlns="http://www.w3.org/2000/svg" xmlns:xlink="http://www.w3.org/1999/xlink" style="isolation:isolate" viewBox="0 0 50 50" width="50" height="50"><defs><clipPath id="_clipPath_HaJKvQ4BMlHVn2fIwp6xkErmIFWBZCnx"><rect width="50" height="50"/></clipPath></defs><g clip-path="url(#_clipPath_HaJKvQ4BMlHVn2fIwp6xkErmIFWBZCnx)"><rect width="50" height="50" style="fill:rgb(48,48,48)"/><path d=" M 0 25 C 0 11.202 11.202 0 25 0 C 38.798 0 50 11.202 50 25 C 50 38.798 38.798 50 25 50 C 11.202 50 0 38.798 0 25 Z " fill="rgb(235,235,235)"/><rect x="9" y="14" width="32" height="17" transform="matrix(1,0,0,1,0,0)" fill="rgb(47,45,45)"/><line x1="10" y1="15" x2="25" y2="21" vector-effect="non-scaling-stroke" stroke-width="0.4" stroke="rgb(255,255,255)" stroke-linejoin="miter" stroke-linecap="square" stroke-miterlimit="3"/><line x1="25" y1="21" x2="40" y2="15" vector-effect="non-scaling-stroke" stroke-width="0.4" stroke="rgb(255,255,255)" stroke-linejoin="miter" stroke-linecap="square" stroke-miterlimit="3"/><line x1="23" y1="36" x2="23" y2="42" vector-effect="non-scaling-stroke" stroke-width="0.5" stroke="rgb(0,0,0)" stroke-linejoin="miter" stroke-linecap="square" stroke-miterlimit="3"/><line x1="25" y1="33" x2="25" y2="44" vector-effect="non-scaling-stroke" stroke-width="0.5" stroke="rgb(0,0,0)" stroke-linejoin="miter" stroke-linecap="square" stroke-miterlimit="3"/><line x1="27" y1="35" x2="27" y2="43" vector-effect="non-scaling-stroke" stroke-width="0.5" stroke="rgb(0,0,0)" stroke-linejoin="miter" stroke-linecap="square" stroke-miterlimit="3"/></g></svg>