<?xml version="1.0" standalone="no"?><!-- Generator: Gravit.io --><svg xmlns="http://www.w3.org/2000/svg" xmlns:xlink="http://www.w3.org/1999/xlink" style="isolation:isolate" viewBox="0 0 50 50" width="50" height="50"><defs><clipPath id="_clipPath_beIWIcNTzF4VpmqB15EfcUj1R330bjNZ"><rect width="50" height="50"/></clipPath></defs><g clip-path="url(#_clipPath_beIWIcNTzF4VpmqB15EfcUj1R330bjNZ)"><rect width="50" height="50" style="fill:rgb(48,48,48)"/><path d=" M 0 25 C 0 11.202 11.202 0 25 0 C 38.798 0 50 11.202 50 25 C 50 38.798 38.798 50 25 50 C 11.202 50 0 38.798 0 25 Z " fill="rgb(235,235,235)"/><g id="Group"><path d=" M 23.272 6.219 L 23.844 12.517 L 30.657 14.122 L 33.979 8.74 L 23.272 6.219 Z " fill="rgb(53,53,53)" vector-effect="non-scaling-stroke" stroke-width="0.5" stroke="rgb(0,0,0)" stroke-linejoin="miter" stroke-linecap="square" stroke-miterlimit="3"/><path d=" M 15.137 32.041 L 23.844 12.517 L 30.657 14.122 L 29.737 35.479 L 20.861 42.635 L 15.137 32.041 Z " fill="rgb(255,255,255)" vector-effect="non-scaling-stroke" stroke-width="0.5" stroke="rgb(0,0,0)" stroke-linejoin="miter" stroke-linecap="square" stroke-miterlimit="3"/><rect x="19.384" y="22.696" width="8" height="1" transform="matrix(0.973,0.229,-0.229,0.973,5.939,-4.742)" fill="rgb(2,2,2)"/></g></g></svg>