<?xml version="1.0" standalone="no"?><!-- Generator: Gravit.io --><svg xmlns="http://www.w3.org/2000/svg" xmlns:xlink="http://www.w3.org/1999/xlink" style="isolation:isolate" viewBox="0 0 50 50" width="50" height="50"><defs><clipPath id="_clipPath_FkR4RsC5YH08pB8WaDUZrQ8m1KU8RfMY"><rect width="50" height="50"/></clipPath></defs><g clip-path="url(#_clipPath_FkR4RsC5YH08pB8WaDUZrQ8m1KU8RfMY)"><rect width="50" height="50" style="fill:rgb(48,48,48)"/><path d=" M 0 25 C 0 11.202 11.202 0 25 0 C 38.798 0 50 11.202 50 25 C 50 38.798 38.798 50 25 50 C 11.202 50 0 38.798 0 25 Z " fill="rgb(235,235,235)"/><path d=" M 13.5 25 L 19.5 26 L 19.5 34 L 22.5 27 L 29.5 28 L 36.5 13 L 13.5 25 Z " fill="rgb(255,255,255)" vector-effect="non-scaling-stroke" stroke-width="1" stroke="rgb(0,0,0)" stroke-linejoin="miter" stroke-linecap="square" stroke-miterlimit="3"/><line x1="21" y1="26" x2="35.5" y2="14" vector-effect="non-scaling-stroke" stroke-width="0.5" stroke="rgb(0,0,0)" stroke-linejoin="miter" stroke-linecap="square" stroke-miterlimit="3"/><line x1="19.5" y1="33" x2="21" y2="26" vector-effect="non-scaling-stroke" stroke-width="0.5" stroke="rgb(0,0,0)" stroke-linejoin="miter" stroke-linecap="square" stroke-miterlimit="3"/><line x1="15" y1="28.5" x2="8" y2="33.5" vector-effect="non-scaling-stroke" stroke-width="0.6" stroke="rgb(0,0,0)" stroke-linejoin="miter" stroke-linecap="square" stroke-miterlimit="3"/><line x1="16.75" y1="29.5" x2="10.25" y2="34.5" vector-effect="non-scaling-stroke" stroke-width="0.6" stroke="rgb(0,0,0)" stroke-linejoin="miter" stroke-linecap="square" stroke-miterlimit="3"/><line x1="16.25" y1="33.5" x2="9.75" y2="38.5" vector-effect="non-scaling-stroke" stroke-width="0.6" stroke="rgb(0,0,0)" stroke-linejoin="miter" stroke-linecap="square" stroke-miterlimit="3"/></g></svg>