<?xml version="1.0" standalone="no"?><!-- Generator: Gravit.io --><svg xmlns="http://www.w3.org/2000/svg" xmlns:xlink="http://www.w3.org/1999/xlink" style="isolation:isolate" viewBox="0 0 80 80" width="80" height="80"><defs><clipPath id="_clipPath_qDQ7nSvcDMwuebOOa2stTOf0WPtN2WfF"><rect width="80" height="80"/></clipPath></defs><g clip-path="url(#_clipPath_qDQ7nSvcDMwuebOOa2stTOf0WPtN2WfF)"><rect width="80" height="80" style="fill:none"/><path d=" M 0 40 C 0 17.923 17.923 0 40 0 C 62.077 0 80 17.923 80 40 C 80 62.077 62.077 80 40 80 C 17.923 80 0 62.077 0 40 Z " fill="rgb(235,235,235)"/><g id="Group"><path d=" M 31.078 42.733 Q 27.851 35.767 23.544 39.381 Q 19.237 42.995 18 46.471 L 31.078 42.733 Z " fill="rgb(55,53,53)"/><path d=" M 37.774 47.969 Q 45.313 49.422 42.844 54.473 Q 40.375 59.524 37.3 61.563 L 37.774 47.969 Z " fill="rgb(55,53,53)"/><path d=" M 28.057 48.799 L 19.647 54.917 L 25.934 52.675 L 24.148 58.437 L 28.354 55.378 L 28.14 60.289 L 32.559 52.319 L 28.057 48.799 Z " fill="rgb(240,122,53)"/><path d=" M 55.789 18.437 L 36.652 25.053 L 27.382 48.271 L 33.684 53.199 L 53.195 37.989 L 55.789 18.437 Z " fill="rgb(255,255,255)" vector-effect="non-scaling-stroke" stroke-width="1" stroke="rgb(0,0,0)" stroke-linejoin="miter" stroke-linecap="square" stroke-miterlimit="3"/><path d=" M 43.004 27.482 C 44.364 25.743 46.88 25.435 48.619 26.795 C 50.358 28.155 50.666 30.671 49.306 32.41 C 47.946 34.149 45.43 34.457 43.691 33.097 C 41.952 31.737 41.644 29.221 43.004 27.482 Z " fill="rgb(235,235,235)"/></g></g></svg>